<svg height="512" viewBox="0 0 64 64" width="512" xmlns="http://www.w3.org/2000/svg"><g id="Flat"><g id="Flat_copy" data-name="Flat copy"><g><path d="m3 54h6.43a84.035 84.035 0 0 1 18.9 2.152 3 3 0 0 0 3.67-2.923v-31.229a5 5 0 0 0 -5-5h-24z" fill="#a1d51c"/><path d="m31.037 55.408a23.8 23.8 0 0 0 -12.248-3.408h-13.789v-35h22a5 5 0 0 1 4.581 3.007 8.545 8.545 0 0 1 .419 2.6v30.622a2.961 2.961 0 0 1 -.963 2.179z" fill="#7ab92d"/><path d="m61 54h-6.43a84.035 84.035 0 0 0 -18.9 2.152 3 3 0 0 1 -3.67-2.923v-31.229a5 5 0 0 1 5-5h24z" fill="#a1d51c"/><path d="m32.963 55.408a23.8 23.8 0 0 1 12.248-3.408h13.789v-35h-22a5 5 0 0 0 -4.581 3.007 8.545 8.545 0 0 0 -.419 2.6v30.622a2.961 2.961 0 0 0 .963 2.179z" fill="#7ab92d"/><path d="m23.394 12h-16.394v38h11.789a23.817 23.817 0 0 1 13.211 4v-33.394a8.606 8.606 0 0 0 -3.832-7.161 8.611 8.611 0 0 0 -4.774-1.445z" fill="#aae1f9"/><path d="m40.606 12h16.394v38h-11.789a23.817 23.817 0 0 0 -13.211 4v-33.394a8.606 8.606 0 0 1 3.832-7.161 8.611 8.611 0 0 1 4.774-1.445z" fill="#aae1f9"/><path d="m42.758 46.129a6.037 6.037 0 0 1 -6.758-5.95v-26.829c-.055.035-.114.059-.168.1a8.606 8.606 0 0 0 -3.832 7.156v33.394a23.817 23.817 0 0 1 13.211-4h11.789v-4h-11.789a23.565 23.565 0 0 0 -2.453.129z" fill="#57b7eb"/><path d="m30 15.112v32.708a23.8 23.8 0 0 0 -11.211-2.82 6.788 6.788 0 0 1 -6.789-6.789v-26.211h-5v38h11.789a23.817 23.817 0 0 1 13.211 4v-33.394a8.592 8.592 0 0 0 -2-5.494z" fill="#57b7eb"/><path d="m34 17.606a8.6 8.6 0 0 1 .592-3.134 8.6 8.6 0 0 0 -2.592 6.134v33.394l.019-.013a4.3 4.3 0 0 0 1.981-3.568z" fill="#4891d3"/><g fill="#f9e109"><path d="m28.167 21.445a1 1 0 0 1 -.554-.168 7.576 7.576 0 0 0 -4.213-1.277h-11.4a1 1 0 0 1 0-2h11.4a9.579 9.579 0 0 1 5.328 1.613 1 1 0 0 1 -.556 1.832z"/><path d="m35.833 21.445a1 1 0 0 1 -.556-1.832 9.581 9.581 0 0 1 5.323-1.613h11.4a1 1 0 0 1 0 2h-11.4a7.581 7.581 0 0 0 -4.218 1.277 1 1 0 0 1 -.549.168z"/><path d="m28.167 26.445a1 1 0 0 1 -.554-.168 7.576 7.576 0 0 0 -4.213-1.277h-11.4a1 1 0 0 1 0-2h11.4a9.579 9.579 0 0 1 5.328 1.613 1 1 0 0 1 -.556 1.832z"/><path d="m35.833 26.445a1 1 0 0 1 -.556-1.832 9.581 9.581 0 0 1 5.323-1.613h11.4a1 1 0 0 1 0 2h-11.4a7.581 7.581 0 0 0 -4.218 1.277 1 1 0 0 1 -.549.168z"/><path d="m28.167 31.445a1 1 0 0 1 -.554-.168 7.576 7.576 0 0 0 -4.213-1.277h-11.4a1 1 0 0 1 0-2h11.4a9.579 9.579 0 0 1 5.328 1.613 1 1 0 0 1 -.556 1.832z"/><path d="m35.833 31.445a1 1 0 0 1 -.556-1.832 9.581 9.581 0 0 1 5.323-1.613h11.4a1 1 0 0 1 0 2h-11.4a7.581 7.581 0 0 0 -4.218 1.277 1 1 0 0 1 -.549.168z"/><path d="m28.167 36.445a1 1 0 0 1 -.554-.168 7.576 7.576 0 0 0 -4.213-1.277h-11.4a1 1 0 0 1 0-2h11.4a9.579 9.579 0 0 1 5.328 1.613 1 1 0 0 1 -.556 1.832z"/><path d="m35.833 36.445a1 1 0 0 1 -.556-1.832 9.581 9.581 0 0 1 5.323-1.613h11.4a1 1 0 0 1 0 2h-11.4a7.581 7.581 0 0 0 -4.218 1.277 1 1 0 0 1 -.549.168z"/><path d="m28.167 41.445a1 1 0 0 1 -.554-.168 7.576 7.576 0 0 0 -4.213-1.277h-11.4a1 1 0 0 1 0-2h11.4a9.579 9.579 0 0 1 5.328 1.613 1 1 0 0 1 -.556 1.832z"/><path d="m35.833 41.445a1 1 0 0 1 -.556-1.832 9.581 9.581 0 0 1 5.323-1.613h11.4a1 1 0 0 1 0 2h-11.4a7.581 7.581 0 0 0 -4.218 1.277 1 1 0 0 1 -.549.168z"/><path d="m28.167 46.445a1 1 0 0 1 -.554-.168 7.576 7.576 0 0 0 -4.213-1.277h-11.4a1 1 0 0 1 0-2h11.4a9.579 9.579 0 0 1 5.328 1.613 1 1 0 0 1 -.556 1.832z"/><path d="m35.833 46.445a1 1 0 0 1 -.556-1.832 9.581 9.581 0 0 1 5.323-1.613h11.4a1 1 0 0 1 0 2h-11.4a7.581 7.581 0 0 0 -4.218 1.277 1 1 0 0 1 -.549.168z"/></g><g fill="#fcbc04"><path d="m11 19a1 1 0 0 0 1 1v-2a1 1 0 0 0 -1 1z"/><path d="m35 21a1 1 0 0 0 .833.445 1.067 1.067 0 0 0 .167-.024v-2.221c-.242.133-.491.254-.723.408a1 1 0 0 0 -.277 1.392z"/><path d="m11 24a1 1 0 0 0 1 1v-2a1 1 0 0 0 -1 1z"/><path d="m35 26a1 1 0 0 0 .833.445 1.067 1.067 0 0 0 .167-.024v-2.216c-.242.133-.491.254-.723.408a1 1 0 0 0 -.277 1.387z"/><path d="m11 29a1 1 0 0 0 1 1v-2a1 1 0 0 0 -1 1z"/><path d="m35 31a1 1 0 0 0 .833.445 1.067 1.067 0 0 0 .167-.024v-2.216c-.242.133-.491.254-.723.408a1 1 0 0 0 -.277 1.387z"/><path d="m11 34a1 1 0 0 0 1 1v-2a1 1 0 0 0 -1 1z"/><path d="m35 36a1 1 0 0 0 .833.445 1.067 1.067 0 0 0 .167-.024v-2.216c-.242.133-.491.254-.723.408a1 1 0 0 0 -.277 1.387z"/><path d="m11 39a1 1 0 0 0 1 1h.246a6.772 6.772 0 0 1 -.246-1.789v-.211a1 1 0 0 0 -1 1z"/><path d="m35 41a.995.995 0 0 0 1.128.4 6.031 6.031 0 0 1 -.128-1.221v-.974c-.242.133-.491.254-.723.408a1 1 0 0 0 -.277 1.387z"/><path d="m11 44a1 1 0 0 0 1 1h6.789a6.767 6.767 0 0 1 -4.811-2h-1.978a1 1 0 0 0 -1 1z"/><path d="m35 46a1 1 0 0 0 1.387.277 7.586 7.586 0 0 1 2.439-1.047 6.022 6.022 0 0 1 -1.687-1.556 9.62 9.62 0 0 0 -1.862.939 1 1 0 0 0 -.277 1.387z"/></g></g></g></g></svg>