<svg height="512" viewBox="0 0 58 58" width="512" xmlns="http://www.w3.org/2000/svg"><g id="Page-1" fill="none" fill-rule="evenodd"><g id="035---Protractor" fill-rule="nonzero"><path id="Shape" d="m57.35 11.78-2.36-2.35c-12.5944044-12.50270341-32.9282798-12.46555511-45.47691745.08308255-12.54863766 12.54863765-12.58578596 32.88251305-.08308255 45.47691745l2.35 2.36c.4176657.4178107.984229.6525464 1.575.6525464s1.1573343-.2347357 1.575-.6525464l42.42-42.42c.4178107-.4176657.6525464-.984229.6525464-1.575s-.2347357-1.1573343-.6525464-1.575zm-42.42 26.71c-2.49-6.68-1.57-14.14 3.92-19.64 5.1380237-5.1833666 12.9058085-6.7337595 19.64-3.92z" fill="#f0c419"/><path id="Shape" d="m36.845 29.146c-.3904999-.3903819-1.0235001-.3903819-1.414 0l-2.436 2.435-2.435-2.435c-.3923789-.3789722-1.0160848-.3735524-1.4018186.0121814s-.3911536 1.0094397-.0121814 1.4018186l2.435 2.435-2.435 2.436c-.2599566.2510745-.3642126.6228779-.2726972.9725073.0915155.3496295.3645604.6226744.7141899.7141899.3496294.0915154.7214328-.0127406.9725073-.2726972l3.14-3.145 3.141-3.141c.3908233-.3892809.392613-1.0215126.004-1.413z" fill="#e57e25"/><g fill="#f29c1f"><path id="Shape" d="m13.28 52.56-3.14 3.14-.71-.71c-.24-.24-.47-.48-.69-.73l3.12-3.12c.2536586-.2536586.623374-.3527236.9698781-.2598781.346504.0928455.6171545.363496.71.71.0928455.3465041-.0062195.7162195-.2598781.9698781z"/><path id="Shape" d="m8.69 49.9-2.28 1.6c-.41-.54-.79-1.08-1.16-1.64l2.29-1.6c.29295778-.2054277.67325632-.2389596.99764083-.0879646s.54357327.4635773.575.82-.12968305.7025369-.42264083.9079646z"/><path id="Shape" d="m5.88 45.59-2.43 1.13c-.31-.59-.59-1.2-.84-1.81l2.42-1.13c.32448496-.1598588.71000475-.1320216 1.00815758.0727959s.46245407.5546825.4296577.9149182c-.03279638.3602356-.25757713.674678-.58781528.8222859z"/><path id="Shape" d="m4.12 40.77-2.75.74c-.2-.64-.37-1.28-.52-1.93l2.75-.74c.52488575-.1222872 1.05226196.1933792 1.19246945.7137647s-.15719584 1.0582723-.67246945 1.2162353z"/><path id="Shape" d="m3.9 34.69c.04616229.5492747-.36085429 1.0323274-.91 1.08l-2.76.24c-.09-.66-.14-1.33-.17-1.99l2.76-.24c.26533835-.0295291.5311662.051152.73533043.2231793.20416422.1720272.32876504.4203184.34466957.6868207z"/><path id="Shape" d="m3.97 29.74c-.04223947.5150698-.47320249.9112076-.99.91h-.09l-2.83-.25c.03-.66.08-1.33.17-1.99l2.83.25c.26532019.0189471.51169879.1443951.68309422.3478095.17139544.2034144.25323587.467501.22690578.7321905z"/><path id="Shape" d="m4.69 24.84c-.11701165.4345954-.50993501.7374738-.96.74-.08835185.002173-.17638694-.0113708-.26-.04l-2.62-.7c.15-.65.32-1.29.52-1.93l2.61.7c.25788751.067951.47794888.2360982.61127381.4670696s.16886681.5056298.09872619.7629304z"/><path id="Shape" d="m6.36 20.16c-.16540268.3472838-.51534056.5689111-.9.57-.14801546.0000643-.29443444-.0305815-.43-.09l-2.42-1.13c.25-.61.53-1.22.84-1.81l2.43 1.13c.24111507.1115059.4275639.3148864.51774437.5647614.09018046.2498751.07658805.5254509-.03774437.7652386z"/><path id="Shape" d="m8.74 15.78c-.19178666.2615014-.49572063.4171749-.82.42-.20402789.0002935-.40314322-.062585-.57-.18l-2.1-1.46c.37-.56.75-1.1 1.16-1.64l2.08 1.46c.22003856.1515284.37029344.3848051.41725877.6478109.04696533.2630059-.01326456.5338692-.16725877.7521891z"/><path id="Shape" d="m55.7 10.14-3.14 3.14c-.3943361.3867403-1.0256639.3867403-1.42 0-.3899779-.3930079-.3899779-1.0269921 0-1.42l3.12-3.12c.25.22.49.45.73.69z"/><path id="Shape" d="m51.5 6.41-1.6 2.28c-.2054277.29295778-.5515419.45406756-.9079646.42264083s-.669005-.25061549-.82-.575-.1174631-.70468305.0879646-.99764083l1.61-2.29c.55.37 1.1.75 1.63 1.16z"/><path id="Shape" d="m46.72 3.45-1.13 2.43c-.1638478.35001798-.513558.57538676-.9.58-.1492607.00146818-.2967038-.03282089-.43-.1-.4997404-.23479147-.7146165-.83017746-.48-1.33l1.13-2.42c.61.25 1.22.53 1.81.84z"/><path id="Shape" d="m41.51 1.37-.74 2.75c-.1170117.43459539-.509935.73747381-.96.74-.0883519.00217302-.1763869-.01137084-.26-.04-.2565405-.06665089-.4758358-.23300206-.6091569-.46208902s-.1696244-.50193348-.1008431-.75791098l.74-2.75c.65.15 1.29.32 1.93.52z"/><path id="Shape" d="m36.01.23-.24 2.76c-.041797.52082193-.4775063.92167446-1 .92-.0270328.0010346-.0540536-.002343-.08-.01-.2645809-.02081776-.509787-.14678693-.6807976-.34974458-.1710107-.20295765-.2535636-.46597721-.2292024-.73025542l.24-2.76c.66.03 1.33.08 1.99.17z"/><path id="Shape" d="m30.65 2.89c.0243612.26427821-.0581917.52729777-.2292024.73025542-.1710106.20295765-.4162167.32892682-.6807976.34974458-.0292484.0082476-.0596546.01162607-.09.01-.5201682.00032319-.9522459-.40120358-.99-.92l-.25-2.83c.66-.09 1.33-.14 1.99-.17z"/><path id="Shape" d="m24.84 4.69c-.0850425.02232571-.1721795.03573139-.26.04-.4566512.00080086-.8558377-.30784848-.97-.75l-.7-2.61c.64-.2 1.28-.37 1.93-.52l.7 2.62c.0708032.25466497.0366095.5270817-.0949367.75634781-.1315461.22926611-.3494741.39626152-.6050633.46365219z"/><path id="Shape" d="m20.16 6.36c-.1332962.06717911-.2807393.10146818-.43.1-.386442-.00461324-.7361522-.22998202-.9-.58l-1.13-2.43c.59-.31 1.2-.59 1.81-.84l1.13 2.42c.2346165.49982254.0197404 1.09520853-.48 1.33z"/><path id="Shape" d="m15.78 8.74c-.1711727.11625718-.3730829.17891896-.58.18-.3267627-.00239194-.6322202-.16257084-.82-.43l-1.46-2.08c.54-.41 1.08-.79 1.64-1.16l1.46 2.1c.316067.45044848.2088148 1.07161743-.24 1.39z"/><path id="Shape" d="m13.28 13.28c-.3943361.3867403-1.0256639.3867403-1.42 0l-3.12-3.12c.22-.25.45-.49.69-.73s.48-.47.73-.69l3.12 3.12c.3899779.3930079.3899779 1.0269921 0 1.42z"/></g></g></g></svg>