<svg id="Layer_1" enable-background="new 0 0 512 512" height="512" viewBox="0 0 512 512" width="512" xmlns="http://www.w3.org/2000/svg"><g><path d="m496.547 512h-481.094v-299.722c0-5.69 4.612-10.302 10.302-10.302h460.491c5.69 0 10.302 4.612 10.302 10.302v299.722z" fill="#fbf5ae"/><path d="m486.245 201.976h-30.905c5.69 0 10.302 4.612 10.302 10.302v299.722h30.905v-299.722c0-5.69-4.612-10.302-10.302-10.302z" fill="#f7e782"/><path d="m107.631 201.976h234.927v310.024h-234.927z" fill="#f7e782"/><path d="m373.464 512h-234.928v-369.835l117.464-50.559 117.464 50.559z" fill="#fbf5ae"/><g><path d="m256 93.875c-4.267 0-7.726-3.459-7.726-7.726v-50.665c0-4.268 3.459-7.726 7.726-7.726s7.726 3.459 7.726 7.726v50.665c0 4.267-3.459 7.726-7.726 7.726z" fill="#ecf5ff"/></g><path d="m258.855 105.364c-1.803-.767-3.841-.767-5.645 0l-114.674 48.771v34.564l114.676-48.735c1.802-.766 3.839-.766 5.641 0l68.538 29.127c9.196 3.908 15.167 12.934 15.167 22.926v319.983h30.905v-323.329-34.564z" fill="#f7e782"/><g><path d="m253.211 74.458-141.356 60.119c-2.681 1.14-4.413 3.782-4.389 6.695l.155 18.819c.042 5.142 5.299 8.589 10.032 6.578l135.561-57.611c1.802-.766 3.839-.766 5.641 0l135.561 57.611c4.733 2.011 9.989-1.435 10.032-6.578l.155-18.819c.024-2.913-1.708-5.555-4.389-6.695l-141.359-60.119c-1.803-.766-3.841-.766-5.644 0z" fill="#db8894"/></g><g><path d="m400.212 134.577-141.357-60.118c-1.803-.767-3.841-.767-5.645 0l-12.63 5.371 128.726 54.747c2.681 1.14 4.413 3.782 4.389 6.695l-.136 16.534 20.855 8.863c4.733 2.011 9.989-1.435 10.032-6.577l.155-18.819c.023-2.914-1.708-5.556-4.389-6.696z" fill="#d4717f"/></g><path d="m315.532 46.358h-67.258v-39.147c0-3.983 3.229-7.211 7.211-7.211h60.047c3.983 0 7.211 3.229 7.211 7.211v31.936c0 3.983-3.229 7.211-7.211 7.211z" fill="#db8894"/><path d="m315.532 0h-30.905c3.983 0 7.211 3.229 7.211 7.211v31.936c0 3.983-3.229 7.211-7.211 7.211h30.905c3.983 0 7.211-3.229 7.211-7.211v-31.936c0-3.982-3.229-7.211-7.211-7.211z" fill="#d4717f"/><g><circle cx="256" cy="206.657" fill="#fff" r="45.106"/><path d="m256 161.55c-5.428 0-10.632.96-15.453 2.718 17.301 6.309 29.654 22.905 29.654 42.389s-12.353 36.08-29.654 42.389c4.82 1.758 10.024 2.718 15.453 2.718 24.912 0 45.107-20.195 45.107-45.106s-20.195-45.108-45.107-45.108z" fill="#f7f6f7"/><path d="m278.824 191.223c-2.39-3.534-7.192-4.463-10.728-2.072l-12.632 8.542-6.879-3.538c-3.795-1.951-8.453-.456-10.405 3.338-1.951 3.795-.457 8.453 3.338 10.404l10.901 5.606c.012.006.024.012.035.018l.013.007c.069.036.141.06.211.093.206.098.413.197.626.276.255.095.514.171.773.238.032.008.064.021.096.029.603.147 1.214.221 1.82.221.363 0 .724-.028 1.081-.078.148-.021.293-.061.44-.091.206-.041.413-.079.615-.137.155-.045.306-.106.459-.161.196-.07.391-.139.58-.224.137-.062.269-.135.404-.205.204-.106.404-.217.598-.342.052-.033.107-.056.158-.09l16.424-11.106c3.535-2.39 4.463-7.192 2.072-10.728z" fill="#4f6d8f"/></g><path d="m305.52 481.03h-99.04v-105.492c0-27.349 22.171-49.52 49.52-49.52 27.349 0 49.52 22.171 49.52 49.52z" fill="#ce9775"/><path d="m256 326.018c-5.398 0-10.589.876-15.453 2.472 19.779 6.493 34.067 25.096 34.067 47.048v105.492h30.905v-105.492c.001-27.349-22.17-49.52-49.519-49.52z" fill="#c6855b"/><path d="m10.302 481.03h491.396c5.69 0 10.302 4.622 10.302 10.323v10.323c0 5.701-4.612 10.323-10.302 10.323h-491.396c-5.69.001-10.302-4.621-10.302-10.322v-10.323c0-5.702 4.612-10.324 10.302-10.324z" fill="#bee49d"/><path d="m501.698 481.03h-30.905c5.69 0 10.302 4.622 10.302 10.323v10.323c0 5.701-4.612 10.323-10.302 10.323h30.905c5.69 0 10.302-4.622 10.302-10.323v-10.323c0-5.701-4.612-10.323-10.302-10.323z" fill="#a3d8a4"/><g><path d="m404.369 364.138v78.775c0 3.983 3.229 7.211 7.211 7.211h46.85c3.983 0 7.211-3.229 7.211-7.211v-78.75c0-3.981-3.226-7.209-7.207-7.211l-46.85-.025c-3.984-.002-7.215 3.227-7.215 7.211z" fill="#bdd8fc"/><path d="m458.434 356.952h-30.905c3.981.002 7.207 3.23 7.207 7.211v78.75c0 3.983-3.229 7.211-7.211 7.211h30.905c3.983 0 7.211-3.228 7.211-7.211v-78.75c.001-3.981-3.226-7.209-7.207-7.211z" fill="#9dc7fb"/><path d="m465.642 318.835v-78.742c0-3.983-3.229-7.211-7.211-7.211h-46.85c-3.983 0-7.211 3.229-7.211 7.211v78.718c0 3.981 3.226 7.209 7.207 7.211l46.85.025c3.984.002 7.215-3.228 7.215-7.212z" fill="#bdd8fc"/><path d="m458.431 232.882h-30.905c3.983 0 7.211 3.229 7.211 7.211v78.742c0 3.875-3.058 7.027-6.891 7.195l30.582.016c3.984.002 7.215-3.227 7.215-7.211v-78.742c-.001-3.983-3.23-7.211-7.212-7.211z" fill="#9dc7fb"/></g><g><path d="m46.358 364.138v78.775c0 3.983 3.229 7.211 7.211 7.211h46.85c3.983 0 7.211-3.229 7.211-7.211v-78.75c0-3.981-3.226-7.209-7.207-7.211l-46.85-.025c-3.984-.002-7.215 3.227-7.215 7.211z" fill="#bdd8fc"/><path d="m107.631 318.835v-78.742c0-3.983-3.229-7.211-7.211-7.211h-46.85c-3.983 0-7.211 3.229-7.211 7.211v78.718c0 3.981 3.226 7.209 7.207 7.211l46.85.025c3.984.002 7.215-3.228 7.215-7.212z" fill="#bdd8fc"/><g fill="#9dc7fb"><path d="m100.423 356.952h-30.905c3.981.002 7.207 3.23 7.207 7.211v78.75c0 3.983-3.229 7.211-7.211 7.211h30.905c3.983 0 7.211-3.228 7.211-7.211v-78.75c.001-3.981-3.225-7.209-7.207-7.211z"/><path d="m100.42 232.882h-30.906c3.983 0 7.211 3.229 7.211 7.211v78.742c0 3.875-3.058 7.027-6.891 7.195l30.582.016c3.984.002 7.215-3.227 7.215-7.211v-78.742c0-3.983-3.229-7.211-7.211-7.211z"/></g></g></g></svg>