<svg id="Capa_1" enable-background="new 0 0 495.827 495.827" height="512" viewBox="0 0 495.827 495.827" width="512" xmlns="http://www.w3.org/2000/svg"><g><g><path clip-rule="evenodd" d="m10.63 294.768v56.82c0 13.66 11.168 24.825 24.803 24.825h427.712c13.663 0 24.831-11.166 24.831-24.825v-24.287c0-2.947-2.409-5.356-5.357-5.356h-304.635c-16.271-.623-29.31-10.996-38.947-21.51z" fill="#fea610" fill-rule="evenodd"/></g><g><path clip-rule="evenodd" d="m71.97 175.658c-36.282 6.348-65.847 30.89-71.97 64.755v26.582c1.757 10.089 5.414 19.469 10.63 27.772 14.683 23.55 41.47 38.456 71.12 36.614 23.64-1.474 43.936-13.49 57.287-30.947 2.778-3.656 5.272-7.51 7.398-11.591 3.345-6.291 6.293-11.647 9.042-16.238 12.501-20.858 20.636-25.279 40.166-26.526l195.587-12.269-3.061-53.278-55.7-50.529z" fill="#fea610" fill-rule="evenodd"/></g><g><path clip-rule="evenodd" d="m332.469 130.003 58.761 103.807 68.909-4.308 30.67-1.927c2.296-.142 4.989-2.097 5.017-4.138-.028-.397-.113-.794-.34-1.162l-36.339-64.217c-15.987-28.254-33.93-44.294-76.732-36.813z" fill="#7bacdf" fill-rule="evenodd"/></g><g><path clip-rule="evenodd" d="m185.184 235.624c-19.53 1.247-27.666 16.125-40.166 36.983h310.501c2.523 0 4.62-2.069 4.62-4.619v-48.942l-68.909 4.308z" fill="#f3eae6" fill-rule="evenodd"/></g><g><path clip-rule="evenodd" d="m391.23 233.81-12.359-21.821-204.176 20.518c-17.433 1.134-24.689 5.073-35.858 23.692-2.466 4.109-5.102 8.899-8.079 14.51-1.899 3.627-4.11 7.085-6.605 10.344-5.442 7.113-12.16 13.206-19.842 17.854-9.212 5.554-19.814 9.069-31.322 9.777-16.837 1.049-32.654-3.939-45.297-13.149-7.228-5.271-13.436-11.874-18.226-19.526-4.62-7.425-7.909-15.813-9.468-24.825v15.813c1.757 10.089 5.414 19.469 10.63 27.772 14.683 23.55 41.47 38.456 71.12 36.614 23.64-1.474 43.936-13.49 57.287-30.947 2.778-3.656 5.272-7.51 7.398-11.591 3.345-6.291 6.293-11.647 9.042-16.238 12.501-20.858 20.636-25.279 40.166-26.526z" fill="#fe7600" fill-rule="evenodd"/></g><g><path clip-rule="evenodd" d="m460.139 229.503-68.909 4.308-195.587 12.271c-13.606.879-21.656 3.259-29.536 11.704l266.31-9.437c7.001-.255 10.573-1.077 10.573 6.348v17.91h12.529c2.523 0 4.62-2.069 4.62-4.619z" fill="#cdbeb9" fill-rule="evenodd"/></g><g><path clip-rule="evenodd" d="m495.827 223.466v-.028zm-.34-1.19-36.339-64.217c-12.954-22.898-27.184-37.748-54.849-38.598 15.307 4.024 42.292 64.047 48.585 81.617.198.368.312.765.312 1.162 0 2.239-3.005 3.967-5.017 4.138l-58.704 4.959-10.601.652 12.359 21.821 68.909-4.308 30.67-1.927c2.296-.142 4.989-2.097 5.017-4.109v-.028c-.031-.397-.116-.794-.342-1.162z" fill="#3987d0" fill-rule="evenodd"/></g><g><path clip-rule="evenodd" d="m35.432 376.413h427.712c13.663 0 24.831-11.166 24.831-24.825v-18.676c0 13.66-11.168 24.825-24.831 24.825h-427.712c-13.634 0-24.803-11.194-24.803-24.825v18.676c.001 13.66 11.169 24.825 24.803 24.825z" fill="#fe7600" fill-rule="evenodd"/></g><g><path clip-rule="evenodd" d="m74.947 220.831c-18.056 1.134-31.776 16.663-30.642 34.716 1.134 18.052 16.667 31.768 34.724 30.635s31.776-16.664 30.642-34.716c-1.134-18.053-16.668-31.769-34.724-30.635z" fill="#f3eae6" fill-rule="evenodd"/></g><g><path clip-rule="evenodd" d="m109.67 251.465c-1.134-18.052-16.667-31.768-34.724-30.635-3.203.198-6.236.85-9.099 1.87 10.46 4.931 17.971 15.247 18.737 27.574.935 14.878-8.22 28.056-21.571 32.845 4.847 2.296 10.318 3.429 16.015 3.061 18.057-1.132 31.776-16.662 30.642-34.715z" fill="#cdbeb9" fill-rule="evenodd"/></g></g></svg>