<?xml version="1.0" encoding="iso-8859-1"?>
<!-- Generator: Adobe Illustrator 21.0.0, SVG Export Plug-In . SVG Version: 6.00 Build 0)  -->
<svg xmlns="http://www.w3.org/2000/svg" xmlns:xlink="http://www.w3.org/1999/xlink" version="1.1" id="Capa_1" x="0px" y="0px" viewBox="0 0 512 512" style="enable-background:new 0 0 512 512;" xml:space="preserve" width="512" height="512">
<g>
	<path style="fill:#FFCCBC;" d="M204.923,46.496C91.747,46.496,0,108.657,0,185.337s91.747,138.841,204.923,138.841   s204.923-62.161,204.923-138.841S318.099,46.496,204.923,46.496z M204.923,230.566c-40.249,0-72.877-20.25-72.877-45.229   s32.628-45.229,72.877-45.229c40.249,0,72.877,20.25,72.877,45.229S245.172,230.566,204.923,230.566z"/>
	<path style="fill:#FF8A65;" d="M305.6,64.379c39.56,25.313,64.247,61.182,64.247,100.958c0,76.68-91.747,138.841-204.923,138.841   c-36.591,0-70.942-6.498-100.677-17.883c36.703,23.485,86.208,37.883,140.677,37.883c113.176,0,204.923-62.161,204.923-138.841   C409.847,133.448,367.835,88.208,305.6,64.379z"/>
	<path style="fill:#78909C;" d="M204.924,106.504c-60.492,0-107.877,34.627-107.877,78.833c0,44.205,47.385,78.833,107.877,78.833   c60.491,0,107.876-34.627,107.876-78.833C312.8,141.131,265.415,106.504,204.924,106.504z M204.923,230.566   c-40.249,0-72.877-20.25-72.877-45.229s32.628-45.229,72.877-45.229c40.249,0,72.877,20.25,72.877,45.229   S245.172,230.566,204.923,230.566z"/>
	<path style="fill:#455A64;" d="M244.882,111.896c17.821,14.271,29.066,34.108,27.826,56.799c3.286,5.151,5.092,10.766,5.092,16.643   c0,18.917-18.714,35.122-45.279,41.873c-31.507,18.276-73.492,21.221-107.556,11.568c19.591,15.689,47.939,25.392,79.959,25.392   c60.491,0,107.876-34.627,107.876-78.833C312.8,151.5,285.036,123.274,244.882,111.896z"/>
	<path style="fill:#37474F;" d="M150.104,215.14c29.008-20.534,80.536-20.601,109.638,0c11.243-7.959,18.058-18.387,18.058-29.803   c0-24.979-32.628-45.229-72.877-45.229c-40.249,0-72.877,20.25-72.877,45.229C132.047,196.753,138.862,207.181,150.104,215.14z"/>
	<path style="fill:#FF7043;" d="M209.705,324.178h200.142V185.337C409.847,260.956,320.672,322.455,209.705,324.178z"/>
	<path style="fill:#E64A19;" d="M389.847,245.252v31.881c0,14.936-12.108,27.044-27.044,27.044h-51.787   c-29.674,12.193-64.279,19.425-101.311,20h200.142V185.337C409.847,206.793,402.667,227.113,389.847,245.252z"/>
	<path style="fill:#FF7043;" d="M509.832,459.455l-6.746-15.883c-0.456-1.075-0.456-2.289,0-3.364l8.571-20.182   c0.456-1.075,0.456-2.289,0-3.364l-8.571-20.179c-0.457-1.075-0.457-2.289,0-3.364l8.571-20.177c0.457-1.075,0.457-2.289,0-3.364   l-8.571-20.178c-0.457-1.075-0.457-2.289,0-3.364l6.743-15.875c1.205-2.837-0.877-5.984-3.96-5.984H200.142   C89.175,322.455,0,260.956,0,185.337v141.257c0,75.57,89.059,137.04,199.925,138.839c0,0.144,262.488,0.029,305.957,0.007   C508.964,465.438,511.037,462.292,509.832,459.455z"/>
	<path style="fill:#E64A19;" d="M503.087,346.037l6.743-15.875c1.205-2.837-0.877-5.984-3.96-5.984h-33.498v58.209   c0,34.827-28.22,63.064-63.047,63.078c-87.209,0.035-249.4,0.079-249.4-0.033c-34.711-0.563-67.284-6.976-95.656-17.839   c35.575,22.763,83.172,36.988,135.656,37.839c0,0.145,262.488,0.029,305.957,0.007c3.082-0.002,5.155-3.148,3.95-5.984   l-6.746-15.883c-0.456-1.075-0.456-2.289,0-3.364l8.571-20.182c0.456-1.075,0.456-2.289,0-3.364l-8.571-20.179   c-0.457-1.075-0.457-2.289,0-3.364l8.571-20.177c0.457-1.075,0.457-2.289,0-3.364l-8.571-20.178   C502.63,348.326,502.63,347.112,503.087,346.037z"/>
</g>















</svg>
