<svg height="512" viewBox="0 0 58 58" width="512" xmlns="http://www.w3.org/2000/svg"><g id="Page-1" fill="none" fill-rule="evenodd"><g id="037---Triangle-Ruler" fill-rule="nonzero" transform="translate(-1 -1)"><path id="Shape" d="m57.29 1.29-56 56c-.28845995.2860905-.37516186.7182668-.21937095 1.0934815s.52310588.6188811.92937095.6165185h55c1.1032019-.0032948 1.9967052-.8967981 2-2v-55c.0023626-.40626507-.2413038-.77358004-.6165185-.92937095s-.807391-.069089-1.0934815.21937095zm-29.29 45.71 19-19v19z" fill="#e64c3c"/><path id="Shape" d="m56 54v5h-2v-5c0-.5522847.4477153-1 1-1s1 .4477153 1 1z" fill="#802f34"/><path id="Shape" d="m52 56v3h-2v-3c0-.5522847.4477153-1 1-1s1 .4477153 1 1z" fill="#c03a2b"/><path id="Shape" d="m48 54v5h-2v-5c0-.5522847.4477153-1 1-1s1 .4477153 1 1z" fill="#802f34"/><path id="Shape" d="m44 56v3h-2v-3c0-.5522847.4477153-1 1-1s1 .4477153 1 1z" fill="#c03a2b"/><path id="Shape" d="m40 54v5h-2v-5c0-.5522847.4477153-1 1-1s1 .4477153 1 1z" fill="#802f34"/><path id="Shape" d="m36 56v3h-2v-3c0-.5522847.4477153-1 1-1s1 .4477153 1 1z" fill="#c03a2b"/><path id="Shape" d="m32 54v5h-2v-5c0-.5522847.4477153-1 1-1s1 .4477153 1 1z" fill="#802f34"/><path id="Shape" d="m28 56v3h-2v-3c0-.5522847.4477153-1 1-1s1 .4477153 1 1z" fill="#c03a2b"/><path id="Shape" d="m24 54v5h-2v-5c0-.5522847.4477153-1 1-1s1 .4477153 1 1z" fill="#802f34"/><path id="Shape" d="m20 56v3h-2v-3c0-.5522847.4477153-1 1-1s1 .4477153 1 1z" fill="#c03a2b"/><path id="Shape" d="m16 54v5h-2v-5c0-.5522847.4477153-1 1-1s1 .4477153 1 1z" fill="#802f34"/><path id="Shape" d="m12 56v3h-2v-3c0-.5522847.4477153-1 1-1s1 .4477153 1 1z" fill="#c03a2b"/><path id="Shape" d="m8 56v3h-2v-3c0-.5522847.44771525-1 1-1s1 .4477153 1 1z" fill="#c03a2b"/><path id="Shape" d="m56 2.58v45.42c0 .5522847-.4477153 1-1 1s-1-.4477153-1-1v-43.42z" fill="#802f34"/></g></g></svg>